<?xml version="1.0" encoding="UTF-8"?>
<svg width="24" height="24" viewBox="0 0 24 24" fill="none" xmlns="http://www.w3.org/2000/svg">
    <path d="M12 22c-4.97 0-9-1.79-9-4v-3.6c0-.12.05-.24 0-.36v-3.6c0-.12.05-.24 0-.36V6.8c0-.12.05-.24 0-.36V4c0-2.21 4.03-4 9-4s9 1.79 9 4v14c0 2.21-4.03 4-9 4z" stroke="currentColor" stroke-width="2" stroke-linecap="round" stroke-linejoin="round"/>
    <path d="M21 4c0 2.21-4.03 4-9 4S3 6.21 3 4M21 10.28c0 2.21-4.03 4-9 4s-9-1.79-9-4" stroke="currentColor" stroke-width="2" stroke-linecap="round" stroke-linejoin="round"/>
</svg>
